<mxfile host="app.diagrams.net" agent="Mozilla/5.0 (X11; Ubuntu; Linux x86_64; rv:141.0) Gecko/20100101 Firefox/141.0" version="28.1.0">
  <diagram name="Page-1" id="GwBXj1B0KdgcHGyh2j5e">
    <mxGraphModel dx="2780" dy="1087" grid="1" gridSize="10" guides="1" tooltips="1" connect="1" arrows="1" fold="1" page="1" pageScale="1" pageWidth="850" pageHeight="1100" math="0" shadow="0">
      <root>
        <mxCell id="0" />
        <mxCell id="1" parent="0" />
        <mxCell id="r4kBxn3I3ywb6i9R92NQ-3" value="" style="edgeStyle=orthogonalEdgeStyle;rounded=0;orthogonalLoop=1;jettySize=auto;html=1;labelBackgroundColor=none;fontColor=default;" edge="1" parent="1" source="r4kBxn3I3ywb6i9R92NQ-1" target="r4kBxn3I3ywb6i9R92NQ-2">
          <mxGeometry relative="1" as="geometry" />
        </mxCell>
        <mxCell id="r4kBxn3I3ywb6i9R92NQ-1" value="Client" style="shape=umlActor;verticalLabelPosition=bottom;verticalAlign=top;html=1;outlineConnect=0;labelBackgroundColor=none;" vertex="1" parent="1">
          <mxGeometry x="-330" y="10" width="30" height="60" as="geometry" />
        </mxCell>
        <mxCell id="r4kBxn3I3ywb6i9R92NQ-5" value="" style="edgeStyle=orthogonalEdgeStyle;rounded=0;orthogonalLoop=1;jettySize=auto;html=1;labelBackgroundColor=none;fontColor=default;" edge="1" parent="1" source="r4kBxn3I3ywb6i9R92NQ-2" target="r4kBxn3I3ywb6i9R92NQ-4">
          <mxGeometry relative="1" as="geometry" />
        </mxCell>
        <mxCell id="r4kBxn3I3ywb6i9R92NQ-2" value="Express API" style="rounded=1;whiteSpace=wrap;html=1;verticalAlign=top;labelBackgroundColor=none;" vertex="1" parent="1">
          <mxGeometry x="-375" y="150" width="120" height="30" as="geometry" />
        </mxCell>
        <mxCell id="r4kBxn3I3ywb6i9R92NQ-27" value="" style="edgeStyle=orthogonalEdgeStyle;rounded=0;orthogonalLoop=1;jettySize=auto;html=1;labelBackgroundColor=none;fontColor=default;" edge="1" parent="1" source="r4kBxn3I3ywb6i9R92NQ-4" target="r4kBxn3I3ywb6i9R92NQ-26">
          <mxGeometry relative="1" as="geometry" />
        </mxCell>
        <mxCell id="r4kBxn3I3ywb6i9R92NQ-30" style="edgeStyle=orthogonalEdgeStyle;rounded=0;orthogonalLoop=1;jettySize=auto;html=1;exitX=0;exitY=0.5;exitDx=0;exitDy=0;entryX=0.5;entryY=0;entryDx=0;entryDy=0;labelBackgroundColor=none;fontColor=default;" edge="1" parent="1" source="r4kBxn3I3ywb6i9R92NQ-4" target="r4kBxn3I3ywb6i9R92NQ-6">
          <mxGeometry relative="1" as="geometry">
            <mxPoint x="-470" y="287.66666666666663" as="targetPoint" />
          </mxGeometry>
        </mxCell>
        <mxCell id="r4kBxn3I3ywb6i9R92NQ-4" value="Controller&lt;br&gt;POST /upload&lt;br&gt;GET /status/:id&lt;br&gt;GET /documents&lt;br&gt;GET /health" style="rounded=1;whiteSpace=wrap;html=1;verticalAlign=top;labelBackgroundColor=none;" vertex="1" parent="1">
          <mxGeometry x="-385" y="245" width="140" height="85" as="geometry" />
        </mxCell>
        <mxCell id="r4kBxn3I3ywb6i9R92NQ-9" value="" style="edgeStyle=orthogonalEdgeStyle;rounded=0;orthogonalLoop=1;jettySize=auto;html=1;labelBackgroundColor=none;fontColor=default;" edge="1" parent="1" source="r4kBxn3I3ywb6i9R92NQ-6" target="r4kBxn3I3ywb6i9R92NQ-8">
          <mxGeometry relative="1" as="geometry" />
        </mxCell>
        <mxCell id="r4kBxn3I3ywb6i9R92NQ-6" value="Queue Service&lt;br&gt;addProcessingJob()" style="rounded=1;whiteSpace=wrap;html=1;verticalAlign=top;labelBackgroundColor=none;" vertex="1" parent="1">
          <mxGeometry x="-540" y="330" width="140" height="52" as="geometry" />
        </mxCell>
        <mxCell id="r4kBxn3I3ywb6i9R92NQ-11" value="" style="edgeStyle=orthogonalEdgeStyle;rounded=0;orthogonalLoop=1;jettySize=auto;html=1;labelBackgroundColor=none;fontColor=default;" edge="1" parent="1" source="r4kBxn3I3ywb6i9R92NQ-8" target="r4kBxn3I3ywb6i9R92NQ-10">
          <mxGeometry relative="1" as="geometry" />
        </mxCell>
        <mxCell id="r4kBxn3I3ywb6i9R92NQ-8" value="Redis Queue&lt;br&gt;BullMQ&lt;br&gt;Job Managment" style="rounded=1;whiteSpace=wrap;html=1;verticalAlign=top;labelBackgroundColor=none;" vertex="1" parent="1">
          <mxGeometry x="-540" y="432" width="140" height="70" as="geometry" />
        </mxCell>
        <mxCell id="r4kBxn3I3ywb6i9R92NQ-13" value="" style="edgeStyle=orthogonalEdgeStyle;rounded=0;orthogonalLoop=1;jettySize=auto;html=1;labelBackgroundColor=none;fontColor=default;" edge="1" parent="1" source="r4kBxn3I3ywb6i9R92NQ-10" target="r4kBxn3I3ywb6i9R92NQ-12">
          <mxGeometry relative="1" as="geometry" />
        </mxCell>
        <mxCell id="r4kBxn3I3ywb6i9R92NQ-15" value="" style="edgeStyle=orthogonalEdgeStyle;rounded=0;orthogonalLoop=1;jettySize=auto;html=1;labelBackgroundColor=none;fontColor=default;" edge="1" parent="1" source="r4kBxn3I3ywb6i9R92NQ-10" target="r4kBxn3I3ywb6i9R92NQ-14">
          <mxGeometry relative="1" as="geometry" />
        </mxCell>
        <mxCell id="r4kBxn3I3ywb6i9R92NQ-17" value="" style="edgeStyle=orthogonalEdgeStyle;rounded=0;orthogonalLoop=1;jettySize=auto;html=1;labelBackgroundColor=none;fontColor=default;" edge="1" parent="1" source="r4kBxn3I3ywb6i9R92NQ-10" target="r4kBxn3I3ywb6i9R92NQ-16">
          <mxGeometry relative="1" as="geometry" />
        </mxCell>
        <mxCell id="r4kBxn3I3ywb6i9R92NQ-20" value="" style="edgeStyle=orthogonalEdgeStyle;rounded=0;orthogonalLoop=1;jettySize=auto;html=1;labelBackgroundColor=none;fontColor=default;" edge="1" parent="1" source="r4kBxn3I3ywb6i9R92NQ-10" target="r4kBxn3I3ywb6i9R92NQ-19">
          <mxGeometry relative="1" as="geometry" />
        </mxCell>
        <mxCell id="r4kBxn3I3ywb6i9R92NQ-21" style="edgeStyle=orthogonalEdgeStyle;rounded=0;orthogonalLoop=1;jettySize=auto;html=1;exitX=1;exitY=0.25;exitDx=0;exitDy=0;labelBackgroundColor=none;fontColor=default;" edge="1" parent="1" source="r4kBxn3I3ywb6i9R92NQ-10" target="r4kBxn3I3ywb6i9R92NQ-23">
          <mxGeometry relative="1" as="geometry">
            <mxPoint x="-130" y="750" as="targetPoint" />
          </mxGeometry>
        </mxCell>
        <mxCell id="r4kBxn3I3ywb6i9R92NQ-10" value="Background Worker&lt;br&gt;Concurrency: 3&lt;br&gt;Retry Strategy&lt;br&gt;Dead Letter Queue" style="rounded=1;whiteSpace=wrap;html=1;verticalAlign=top;labelBackgroundColor=none;" vertex="1" parent="1">
          <mxGeometry x="-540" y="582" width="140" height="70" as="geometry" />
        </mxCell>
        <mxCell id="r4kBxn3I3ywb6i9R92NQ-12" value="OCR Service" style="rounded=1;whiteSpace=wrap;html=1;verticalAlign=top;labelBackgroundColor=none;" vertex="1" parent="1">
          <mxGeometry x="-840" y="700" width="140" height="30" as="geometry" />
        </mxCell>
        <mxCell id="r4kBxn3I3ywb6i9R92NQ-14" value="&lt;div&gt;Metadata Service&lt;/div&gt;&lt;div&gt;&lt;br&gt;&lt;/div&gt;" style="rounded=1;whiteSpace=wrap;html=1;verticalAlign=top;labelBackgroundColor=none;" vertex="1" parent="1">
          <mxGeometry x="-690" y="700" width="140" height="30" as="geometry" />
        </mxCell>
        <mxCell id="r4kBxn3I3ywb6i9R92NQ-16" value="Validation Service" style="rounded=1;whiteSpace=wrap;html=1;verticalAlign=top;labelBackgroundColor=none;" vertex="1" parent="1">
          <mxGeometry x="-540" y="700" width="140" height="30" as="geometry" />
        </mxCell>
        <mxCell id="r4kBxn3I3ywb6i9R92NQ-19" value="PostgreSQL&lt;br&gt;Document Storage&lt;br&gt;Status Tracking" style="rounded=1;whiteSpace=wrap;html=1;verticalAlign=top;labelBackgroundColor=none;" vertex="1" parent="1">
          <mxGeometry x="-360" y="700" width="140" height="60" as="geometry" />
        </mxCell>
        <mxCell id="r4kBxn3I3ywb6i9R92NQ-23" value="Logger" style="rounded=1;whiteSpace=wrap;html=1;labelBackgroundColor=none;" vertex="1" parent="1">
          <mxGeometry x="-230" y="582" width="120" height="30" as="geometry" />
        </mxCell>
        <mxCell id="r4kBxn3I3ywb6i9R92NQ-25" style="edgeStyle=orthogonalEdgeStyle;rounded=0;orthogonalLoop=1;jettySize=auto;html=1;exitX=1;exitY=1;exitDx=0;exitDy=0;entryX=0.814;entryY=0.005;entryDx=0;entryDy=0;entryPerimeter=0;labelBackgroundColor=none;fontColor=default;" edge="1" parent="1" source="r4kBxn3I3ywb6i9R92NQ-4" target="r4kBxn3I3ywb6i9R92NQ-19">
          <mxGeometry relative="1" as="geometry" />
        </mxCell>
        <mxCell id="r4kBxn3I3ywb6i9R92NQ-28" style="edgeStyle=orthogonalEdgeStyle;rounded=0;orthogonalLoop=1;jettySize=auto;html=1;entryX=1;entryY=0.75;entryDx=0;entryDy=0;labelBackgroundColor=none;fontColor=default;" edge="1" parent="1" source="r4kBxn3I3ywb6i9R92NQ-26" target="r4kBxn3I3ywb6i9R92NQ-23">
          <mxGeometry relative="1" as="geometry" />
        </mxCell>
        <mxCell id="r4kBxn3I3ywb6i9R92NQ-26" value="Error Middleware&lt;div&gt;&lt;br/&gt;&lt;/div&gt;" style="whiteSpace=wrap;html=1;verticalAlign=top;rounded=1;labelBackgroundColor=none;" vertex="1" parent="1">
          <mxGeometry x="-200" y="272" width="120" height="30" as="geometry" />
        </mxCell>
      </root>
    </mxGraphModel>
  </diagram>
</mxfile>
